<?xml version="1.0" encoding="UTF-8"?>
<svg id="Layer_1" data-name="Layer 1" xmlns="http://www.w3.org/2000/svg" version="1.1" xmlns:xlink="http://www.w3.org/1999/xlink" viewBox="0 0 795.95 294.25">
  <defs>
    <style>
      .cls-1 {
        fill: #1c5e5c;
      }

      .cls-1, .cls-2 {
        stroke-width: 0px;
      }

      .cls-2 {
        fill: url(#linear-gradient);
      }
    </style>
    <linearGradient id="linear-gradient" x1="309.32" y1="167.57" x2="531.63" y2="167.57" gradientUnits="userSpaceOnUse">
      <stop offset="0" stop-color="#e9c787"/>
      <stop offset=".52" stop-color="#ba9f68"/>
      <stop offset="1" stop-color="#d9b97c"/>
    </linearGradient>
  </defs>
  <path class="cls-1" d="M63.93,73.63h26.61v84.66l39.18-43.72h33.42l-45.68,50.83,51.15,55.22h-33.03l-45.03-48.88v48.88h-26.61V73.63ZM179.93,70.9c4.67,0,8.67,1.69,12,5.07,3.34,3.38,5.01,7.47,5.01,12.28s-1.65,8.79-4.96,12.13c-3.31,3.35-7.26,5.02-11.86,5.02s-8.77-1.71-12.1-5.12c-3.34-3.41-5-7.55-5-12.43s1.65-8.68,4.96-11.99c3.3-3.31,7.29-4.97,11.95-4.97ZM166.63,114.57h26.61v106.05h-26.61v-106.05ZM207.43,114.57h26.61v10.87c6.03-5.09,11.5-8.63,16.4-10.61,4.9-1.99,9.91-2.98,15.04-2.98,10.51,0,19.43,3.67,26.77,11.01,6.16,6.24,9.25,15.47,9.25,27.68v70.08h-26.32v-46.44c0-12.66-.57-21.06-1.7-25.21-1.13-4.16-3.11-7.32-5.93-9.49-2.82-2.18-6.3-3.26-10.45-3.26-5.38,0-10,1.8-13.86,5.4-3.86,3.6-6.53,8.59-8.02,14.95-.78,3.31-1.17,10.48-1.17,21.51v42.55h-26.61v-106.05ZM612.76,129.39l-16.47,16.47c-6.69-6.63-12.77-9.94-18.23-9.94-2.99,0-5.33.63-7.02,1.9-1.69,1.27-2.53,2.84-2.53,4.73,0,1.43.54,2.75,1.61,3.95,1.07,1.2,3.72,2.84,7.94,4.92l9.75,4.87c10.27,5.07,17.32,10.23,21.15,15.5,3.83,5.26,5.75,11.44,5.75,18.52,0,9.42-3.46,17.29-10.38,23.59-6.92,6.3-16.2,9.45-27.83,9.45-15.47,0-27.81-6.04-37.04-18.13l16.37-17.84c3.12,3.64,6.77,6.58,10.96,8.82,4.19,2.24,7.91,3.36,11.16,3.36,3.51,0,6.33-.84,8.48-2.53,2.14-1.69,3.22-3.64,3.22-5.85,0-4.09-3.87-8.09-11.6-11.99l-8.97-4.49c-17.16-8.64-25.73-19.46-25.73-32.46,0-8.38,3.23-15.55,9.7-21.49,6.47-5.95,14.73-8.92,24.81-8.92,6.89,0,13.37,1.51,19.45,4.53,6.08,3.02,11.22,7.36,15.45,13.01ZM731.93,175.29h-85.48c1.23,7.54,4.53,13.53,9.89,17.98,5.36,4.45,12.2,6.68,20.52,6.68,9.94,0,18.49-3.48,25.64-10.43l22.42,10.53c-5.59,7.93-12.28,13.79-20.08,17.59-7.8,3.8-17.06,5.7-27.78,5.7-16.64,0-30.18-5.25-40.65-15.74-10.46-10.49-15.69-23.64-15.69-39.43s5.21-29.61,15.64-40.3c10.43-10.69,23.51-16.03,39.23-16.03,16.7,0,30.28,5.35,40.74,16.03,10.46,10.69,15.69,24.81,15.69,42.35l-.1,5.07ZM705.32,154.34c-1.76-5.91-5.22-10.72-10.4-14.43-5.17-3.7-11.18-5.55-18.01-5.55-7.42,0-13.93,2.08-19.53,6.24-3.52,2.6-6.77,7.18-9.76,13.74h57.7Z"/>
  <path class="cls-2" d="M329.16,214.75c20.63,10.81,49.61-4.11,67.01-15.57.73,3.66,1.35,7.15,1.89,10.57.83,5.5,5.99,9.33,11.5,8.53,2.68-.39,5.06-1.8,6.68-3.97,1.62-2.17,2.3-4.85,1.92-7.49-1.23-9.69-3.05-18.88-5.38-27.18-.03-.13-.06-.25-.1-.38l-.14-.54s-.12-.41-.39-.99c-.06-.13-.13-.27-.24-.49-.16-.3-.35-.63-.56-.93-.1-.18-.21-.36-.33-.52-.12-.16-.25-.3-.36-.41-.21-.25-.44-.51-.69-.75-.2-.2-.4-.38-.6-.55-.31-.26-.65-.5-1-.73-.2-.13-.39-.25-.62-.37-.36-.2-.75-.38-1.18-.54-.27-.1-.53-.19-.79-.27-.22-.07-.46-.12-.69-.17-.42-.1-.84-.16-1.31-.21-.22-.03-.44-.05-.67-.06-.17-.01-.32,0-.5,0h-.21c-1.31.04-2.54.34-3.55.84-.74.32-1.39.69-1.98,1.12-22.39,16.29-40.01,24.9-50.97,24.9-4.03,0-16.28,0-16.31-31.11-.34-15.79,2.91-25.59,9.66-29.11,10.2-5.32,29.02,2.19,57.49,22.93,11.95,9.19,14.63,11.66,17.23,14.04,2.71,2.49,5.51,5.06,17.93,14.61,13.77,10.65,40.34,28.5,63.65,28.5,31.79-1.28,35.81-29.63,36.07-50.92-.32-23.04-4.71-49.64-36.18-50.88-17.34,0-36.55,10-50.62,19.26-.75-3.72-1.37-7.17-1.91-10.62-.83-5.5-5.98-9.34-11.49-8.53-2.69.39-5.06,1.8-6.68,3.97-1.62,2.17-2.3,4.85-1.92,7.48,1.22,9.68,3.04,18.88,5.38,27.21.04.18.09.35.16.6l.1.35s.1.32.29.72c.35.85.76,1.57,1.24,2.21.44.58.96,1.12,1.54,1.61,1.46,1.3,3.19,2.08,5.12,2.32.28.04.56.07.9.09.16,0,.34,0,.54,0h.01c2.19,0,4.25-.67,5.97-1.93,22.41-16.26,40.03-24.86,50.97-24.86,4.45,0,16.27.02,16.32,31.02,0,15.85-3.34,26.31-9.41,29.48-13.96,5.06-32.48-5.15-57.74-23.2-11.93-9.17-14.62-11.64-17.22-14.04-2.71-2.49-5.51-5.07-17.91-14.58-22.69-18.24-57.06-35.77-79.21-25.16-13.62,6.52-20.53,22.5-20.54,47.5.05,24.46,6.72,40.34,19.84,47.22Z"/>
</svg>