<?xml version="1.0" encoding="UTF-8"?>
<svg id="Layer_1" data-name="Layer 1" xmlns="http://www.w3.org/2000/svg" version="1.1" xmlns:xlink="http://www.w3.org/1999/xlink" viewBox="0 0 498.9 515.49">
  <defs>
    <style>
      .cls-1 {
        fill: #1c5e5c;
      }

      .cls-1, .cls-2 {
        stroke-width: 0px;
      }

      .cls-2 {
        fill: url(#radial-gradient);
      }
    </style>
    <radialGradient id="radial-gradient" cx="249.45" cy="257.75" fx="249.45" fy="257.75" r="86.45" gradientUnits="userSpaceOnUse">
      <stop offset="0" stop-color="#e9c787"/>
      <stop offset="1" stop-color="#ccae72"/>
    </radialGradient>
  </defs>
  <rect class="cls-1" x="41.8" y="50.1" width="415.3" height="415.3" rx="127.21" ry="127.21"/>
  <path class="cls-2" d="M158.13,304.93c20.63,10.81,49.61-4.11,67.01-15.57.73,3.66,1.35,7.15,1.89,10.57.83,5.5,5.99,9.33,11.5,8.53,2.68-.39,5.06-1.8,6.68-3.97,1.62-2.17,2.3-4.85,1.92-7.49-1.23-9.69-3.05-18.88-5.38-27.18-.03-.13-.06-.25-.1-.38l-.14-.54s-.12-.41-.39-.99c-.06-.13-.13-.27-.24-.49-.16-.3-.35-.63-.56-.93-.1-.18-.21-.36-.33-.52-.12-.16-.25-.3-.36-.41-.21-.25-.44-.51-.69-.75-.2-.2-.4-.38-.6-.55-.31-.26-.65-.5-1-.73-.2-.13-.39-.25-.62-.37-.36-.2-.75-.38-1.18-.54-.27-.1-.53-.19-.79-.27-.22-.07-.46-.12-.69-.17-.42-.1-.84-.16-1.31-.21-.22-.03-.44-.05-.67-.06-.17-.01-.32,0-.5,0h-.21c-1.31.04-2.54.34-3.55.84-.74.32-1.39.69-1.98,1.12-22.39,16.29-40.01,24.9-50.97,24.9-4.03,0-16.28,0-16.31-31.11-.34-15.79,2.91-25.59,9.66-29.11,10.2-5.32,29.02,2.19,57.49,22.93,11.95,9.19,14.63,11.66,17.23,14.04,2.71,2.49,5.51,5.06,17.93,14.61,13.77,10.65,40.34,28.5,63.65,28.5,31.79-1.28,35.81-29.63,36.07-50.92-.32-23.04-4.71-49.64-36.18-50.88-17.34,0-36.55,10-50.62,19.26-.75-3.72-1.37-7.17-1.91-10.62-.83-5.5-5.98-9.34-11.49-8.53-2.69.39-5.06,1.8-6.68,3.97-1.62,2.17-2.3,4.85-1.92,7.48,1.22,9.68,3.04,18.88,5.38,27.21.04.18.09.35.16.6l.1.35s.1.32.29.72c.35.85.76,1.57,1.24,2.21.44.58.96,1.12,1.54,1.61,1.46,1.3,3.19,2.08,5.12,2.32.28.04.56.07.9.09.16,0,.34,0,.54,0h.01c2.19,0,4.25-.67,5.97-1.93,22.41-16.26,40.03-24.86,50.97-24.86,4.45,0,16.27.02,16.32,31.02,0,15.85-3.34,26.31-9.41,29.48-13.96,5.06-32.48-5.15-57.74-23.2-11.93-9.17-14.62-11.64-17.22-14.04-2.71-2.49-5.51-5.07-17.91-14.58-22.69-18.24-57.06-35.77-79.21-25.16-13.62,6.52-20.53,22.5-20.54,47.5.05,24.46,6.72,40.34,19.84,47.22Z"/>
</svg>