<?xml version="1.0" encoding="UTF-8"?>
<svg id="Layer_1" data-name="Layer 1" xmlns="http://www.w3.org/2000/svg" version="1.1" xmlns:xlink="http://www.w3.org/1999/xlink" viewBox="0 0 795.95 294.25">
  <defs>
    <style>
      .cls-1 {
        fill: #1c5e5c;
      }

      .cls-1, .cls-2 {
        stroke-width: 0px;
      }

      .cls-2 {
        fill: url(#linear-gradient);
      }
    </style>
    <linearGradient id="linear-gradient" x1="54.72" y1="147.13" x2="741.23" y2="147.13" gradientUnits="userSpaceOnUse">
      <stop offset="0" stop-color="#e9c787"/>
      <stop offset=".52" stop-color="#ba9f68"/>
      <stop offset="1" stop-color="#d9b97c"/>
    </linearGradient>
  </defs>
  <rect class="cls-2" x="54.72" y="42.88" width="686.51" height="208.49"/>
  <path class="cls-1" d="M138.29,89.99h20.69v65.81l30.46-33.99h25.98l-35.51,39.51,39.76,42.93h-25.68l-35.01-38v38h-20.69v-114.27ZM228.47,87.87c3.63,0,6.74,1.31,9.33,3.94,2.59,2.63,3.89,5.81,3.89,9.55s-1.28,6.83-3.85,9.43-5.64,3.9-9.22,3.9-6.81-1.33-9.41-3.98c-2.59-2.65-3.89-5.87-3.89-9.66s1.28-6.74,3.85-9.32c2.57-2.58,5.67-3.86,9.29-3.86ZM218.13,121.82h20.69v82.44h-20.69v-82.44ZM249.85,121.82h20.69v8.45c4.69-3.95,8.94-6.71,12.75-8.25,3.81-1.55,7.71-2.32,11.69-2.32,8.17,0,15.11,2.86,20.81,8.56,4.79,4.85,7.19,12.02,7.19,21.52v54.48h-20.46v-36.1c0-9.84-.44-16.37-1.32-19.6-.88-3.23-2.42-5.69-4.61-7.38-2.19-1.69-4.9-2.54-8.12-2.54-4.18,0-7.77,1.4-10.77,4.2-3,2.8-5.08,6.67-6.24,11.62-.6,2.57-.91,8.15-.91,16.73v33.07h-20.69v-82.44ZM564.95,133.34l-12.81,12.8c-5.2-5.15-9.93-7.73-14.17-7.73-2.32,0-4.14.49-5.46,1.48-1.31.99-1.97,2.21-1.97,3.67,0,1.11.42,2.14,1.25,3.07.83.93,2.89,2.21,6.18,3.83l7.58,3.79c7.98,3.94,13.46,7.96,16.44,12.05,2.98,4.09,4.47,8.89,4.47,14.4,0,7.32-2.69,13.44-8.07,18.34-5.38,4.9-12.59,7.35-21.63,7.35-12.02,0-21.62-4.7-28.79-14.09l12.73-13.87c2.42,2.83,5.27,5.11,8.52,6.86,3.26,1.74,6.15,2.61,8.68,2.61,2.73,0,4.92-.66,6.59-1.97,1.67-1.31,2.5-2.83,2.5-4.55,0-3.18-3.01-6.29-9.02-9.32l-6.97-3.49c-13.34-6.72-20-15.13-20-25.23,0-6.52,2.51-12.09,7.54-16.71,5.03-4.62,11.45-6.93,19.28-6.93,5.35,0,10.39,1.18,15.12,3.52,4.72,2.35,8.73,5.72,12.01,10.12ZM657.58,169.02h-66.45c.96,5.86,3.52,10.52,7.69,13.98,4.17,3.46,9.48,5.19,15.95,5.19,7.73,0,14.37-2.7,19.93-8.11l17.43,8.18c-4.35,6.16-9.55,10.72-15.61,13.68-6.06,2.96-13.26,4.43-21.6,4.43-12.93,0-23.46-4.08-31.6-12.24-8.13-8.16-12.2-18.37-12.2-30.65s4.05-23.02,12.16-31.33c8.11-8.31,18.27-12.46,30.5-12.46,12.98,0,23.54,4.16,31.67,12.46,8.13,8.31,12.2,19.28,12.2,32.92l-.08,3.94ZM636.9,152.73c-1.37-4.6-4.06-8.33-8.08-11.21-4.02-2.88-8.69-4.32-14-4.32-5.77,0-10.83,1.62-15.18,4.85-2.73,2.02-5.26,5.58-7.59,10.68h44.86ZM344.48,199.7c16.04,8.4,38.57-3.19,52.09-12.1.57,2.85,1.05,5.56,1.47,8.22.65,4.28,4.66,7.25,8.94,6.63,2.09-.3,3.93-1.4,5.19-3.09,1.26-1.69,1.79-3.77,1.49-5.82-.95-7.53-2.37-14.68-4.18-21.13-.02-.1-.05-.2-.07-.29l-.11-.42s-.1-.32-.31-.77c-.05-.1-.1-.21-.19-.38-.12-.23-.27-.49-.43-.73-.08-.14-.17-.28-.26-.4-.09-.12-.19-.24-.28-.32-.16-.2-.34-.39-.54-.58-.16-.15-.31-.3-.47-.43-.24-.2-.5-.39-.78-.57-.15-.1-.3-.19-.48-.29-.28-.15-.59-.3-.91-.42-.21-.08-.41-.15-.62-.21-.17-.05-.36-.1-.54-.13-.33-.07-.65-.13-1.02-.16-.17-.02-.35-.04-.52-.05-.13,0-.25,0-.39,0h-.17c-1.02.03-1.98.27-2.76.65-.58.25-1.08.54-1.54.87-17.41,12.66-31.11,19.35-39.62,19.35-3.13,0-12.66,0-12.68-24.19-.27-12.28,2.26-19.89,7.51-22.63,7.93-4.14,22.56,1.7,44.69,17.83,9.29,7.14,11.38,9.06,13.39,10.92,2.11,1.94,4.28,3.94,13.94,11.36,10.71,8.28,31.36,22.16,49.48,22.16,24.71-1,27.84-23.04,28.04-39.58-.25-17.91-3.66-38.59-28.12-39.55-13.48,0-28.41,7.77-39.35,14.97-.58-2.89-1.06-5.57-1.49-8.25-.65-4.28-4.65-7.26-8.93-6.63-2.09.3-3.93,1.4-5.19,3.09-1.26,1.69-1.79,3.77-1.49,5.82.95,7.53,2.37,14.68,4.18,21.15.03.14.07.28.12.46l.08.27s.08.25.23.56c.28.66.59,1.22.96,1.72.34.45.75.87,1.2,1.25,1.14,1.01,2.48,1.61,3.98,1.8.22.03.44.06.7.07.13,0,.26,0,.42,0h0c1.7,0,3.31-.52,4.64-1.5,17.42-12.64,31.12-19.33,39.62-19.33,3.46,0,12.65.01,12.69,24.11,0,12.33-2.6,20.45-7.32,22.92-10.85,3.94-25.25-4-44.89-18.04-9.27-7.13-11.36-9.05-13.38-10.91-2.1-1.94-4.28-3.94-13.92-11.34-17.64-14.18-44.36-27.81-61.58-19.56-10.59,5.07-15.96,17.5-15.97,36.93.04,19.01,5.23,31.36,15.42,36.71Z"/>
</svg>